<svg width="37" height="37" viewBox="0 0 37 37" fill="none" xmlns="http://www.w3.org/2000/svg">
<path d="M11.7053 5.87974V24.3915H5.85264C5.0844 24.391 4.3236 24.542 3.61375 24.8357C2.9039 25.1295 2.25891 25.5603 1.71569 26.1035C1.17246 26.6468 0.74164 27.2918 0.447866 28.0016C0.154093 28.7115 0.00312724 29.4723 0.00360219 30.2405V5.87974C0.0415389 4.35317 0.674616 2.90188 1.76773 1.8356C2.86084 0.769313 4.32741 0.172485 5.85445 0.172485C7.38149 0.172485 8.84806 0.769313 9.94117 1.8356C11.0343 2.90188 11.6674 4.35317 11.7053 5.87974V5.87974Z" fill="#FC665C"/>
<path d="M36.0914 5.85446V15.6342C36.0914 17.1854 35.4752 18.6732 34.3782 19.7701C33.2813 20.867 31.7936 21.4832 30.2423 21.4832C28.6911 21.4832 27.2034 20.867 26.1065 19.7701C25.0095 18.6732 24.3933 17.1854 24.3933 15.6342V11.7035H30.2423C31.7936 11.7035 33.2813 11.0873 34.3782 9.99036C35.4752 8.89345 36.0914 7.40572 36.0914 5.85446V5.85446Z" fill="#FC665C"/>
<path d="M36.0914 5.85445C36.0914 7.40571 35.4751 8.89344 34.3782 9.99035C33.2813 11.0873 31.7936 11.7035 30.2423 11.7035H24.3933V5.85445C24.3933 4.30286 25.0094 2.81476 26.1062 1.71728C27.203 0.619798 28.6908 0.00275831 30.2423 0.00180054V0.00180054C30.7845 0.00258971 31.3241 0.0767211 31.8464 0.222178L32.1174 0.308884L32.3883 0.406428L32.6521 0.518423C32.7785 0.576227 32.9049 0.641257 33.0133 0.709899L33.259 0.847184C33.3782 0.923051 33.4974 0.998919 33.6203 1.08201C33.6979 1.13454 33.7727 1.19122 33.8443 1.25181C34.5446 1.79718 35.1112 2.49534 35.5006 3.29301C35.8901 4.09069 36.0921 4.96679 36.0914 5.85445V5.85445Z" fill="#E24639"/>
<path d="M30.2423 0.00180649C28.6908 0.00276427 27.203 0.619804 26.1062 1.71729C25.0094 2.81477 24.3933 4.30286 24.3933 5.85446V11.7035H20.4663C19.6857 11.7229 18.9091 11.5859 18.1823 11.3006C17.4555 11.0153 16.7931 10.5874 16.2341 10.0422C15.6752 9.49697 15.231 8.84542 14.9277 8.12591C14.6244 7.4064 14.4682 6.63347 14.4682 5.85265C14.4682 5.07183 14.6244 4.29891 14.9277 3.5794C15.231 2.85988 15.6752 2.20833 16.2341 1.66311C16.7931 1.11789 17.4555 0.690025 18.1823 0.404712C18.9091 0.1194 19.6857 -0.0175916 20.4663 0.00180649H30.2423Z" fill="#FF9180"/>
<path d="M11.7053 24.3915V30.2405C11.706 31.3982 11.3634 32.5301 10.7207 33.4931C10.078 34.456 9.16424 35.2067 8.09487 35.6502C7.0255 36.0938 5.84861 36.2102 4.71307 35.9848C3.57753 35.7593 2.53435 35.2022 1.71548 34.3839C0.896613 33.5655 0.338843 32.5227 0.112724 31.3873C-0.113395 30.2519 0.00229635 29.0749 0.445163 28.0053C0.88803 26.9356 1.63818 26.0213 2.60072 25.3781C3.56326 24.7348 4.69495 24.3915 5.85265 24.3915H11.7053Z" fill="#E24639"/>
<path d="M36.0914 30.2405C36.0918 31.0089 35.9409 31.7699 35.6472 32.48C35.3534 33.19 34.9227 33.8352 34.3795 34.3787C33.8363 34.9223 33.1914 35.3534 32.4815 35.6476C31.7716 35.9418 31.0107 36.0932 30.2423 36.0932H5.85266C7.40429 36.0913 8.89183 35.474 9.989 34.3769C11.0862 33.2797 11.7034 31.7921 11.7053 30.2405V24.3915H30.2423C31.7936 24.3915 33.2813 25.0077 34.3782 26.1046C35.4751 27.2015 36.0914 28.6893 36.0914 30.2405V30.2405Z" fill="#FF9180"/>
</svg>
