<svg width="160" height="64" viewBox="0 0 160 64" fill="none" xmlns="http://www.w3.org/2000/svg">
<path d="M48.0206 20.7107H53.8877V38.2072H63.4145V43.1892H48.0206V20.7107Z" fill="#141414"/>
<path d="M80.2066 28.1493C81.724 29.8184 82.4827 32.1065 82.4827 35.0135C82.4827 35.4615 82.4827 35.8047 82.4502 36.0396H70.4052C70.6253 36.9318 71.1331 37.7266 71.8503 38.3012C72.5729 38.8368 73.455 39.113 74.354 39.0851C75.0997 39.0865 75.8376 38.934 76.5216 38.6371C77.2351 38.3238 77.8825 37.8775 78.4292 37.3221L81.4097 40.3062C80.5153 41.3083 79.4029 42.0919 78.1582 42.5967C76.7872 43.1396 75.3226 43.4072 73.8482 43.3843C72.1585 43.4248 70.4845 43.0528 68.971 42.3005C67.6145 41.6171 66.4944 40.5423 65.7556 39.2152C65.0028 37.7939 64.6295 36.2023 64.6718 34.5945C64.6374 32.9585 65.0243 31.3412 65.7954 29.8979C66.5214 28.5617 67.6245 27.4686 68.9674 26.7548C70.4291 25.9967 72.0574 25.6167 73.7037 25.6493C76.5289 25.6493 78.6965 26.4826 80.2066 28.1493ZM76.9552 32.994C76.9756 32.552 76.9079 32.1104 76.7559 31.6948C76.6039 31.2792 76.3708 30.898 76.07 30.5735C75.7684 30.267 75.4058 30.0272 75.0056 29.8698C74.6054 29.7123 74.1767 29.6407 73.747 29.6595C73.3292 29.6492 72.9136 29.7233 72.525 29.8772C72.1365 30.0311 71.7829 30.2618 71.4855 30.5554C70.8417 31.2241 70.4213 32.0762 70.2824 32.994H76.9552Z" fill="#141414"/>
<path d="M93.4474 26.4188C94.4426 25.8722 95.5636 25.5957 96.6988 25.6168V30.8444C96.4118 30.8188 96.1236 30.8079 95.8354 30.8119C94.6699 30.7586 93.5194 31.0913 92.5622 31.7585C92.1536 32.0635 91.8138 32.4512 91.5648 32.8962C91.3158 33.3413 91.1633 33.8337 91.1171 34.3416V43.1892H85.409V25.848H91.1171V28.7382C91.6731 27.7711 92.4777 26.9703 93.4474 26.4188Z" fill="#141414"/>
<path d="M126.876 27.4123C128.011 28.6166 128.578 30.2315 128.578 32.257V43.1892H122.87V33.89C122.921 33.048 122.651 32.2178 122.115 31.567C121.85 31.2824 121.526 31.0591 121.166 30.9124C120.806 30.7658 120.418 30.6995 120.03 30.718C119.574 30.7091 119.121 30.804 118.707 30.9955C118.293 31.187 117.927 31.4701 117.638 31.8235C117.023 32.625 116.711 33.6178 116.757 34.627V43.1892H111.049V33.89C111.096 33.0461 110.821 32.2156 110.279 31.567C110.015 31.282 109.691 31.0584 109.331 30.9117C108.971 30.7651 108.583 30.699 108.195 30.718C107.736 30.7103 107.282 30.8057 106.866 30.997C106.449 31.1884 106.081 31.4708 105.788 31.8235C105.165 32.621 104.847 33.6155 104.893 34.627V43.1892H99.2025V25.848H104.878V28.7021C105.433 27.7427 106.237 26.9512 107.205 26.4116C108.225 25.8701 109.367 25.5989 110.521 25.624C111.802 25.5901 113.062 25.9481 114.134 26.65C115.143 27.3408 115.898 28.3433 116.284 29.5041C116.764 28.3183 117.598 27.3092 118.672 26.6139C119.777 25.9418 121.052 25.6019 122.346 25.6349C124.235 25.6168 125.745 26.2165 126.876 27.4123Z" fill="#141414"/>
<path d="M145.478 26.7548C146.864 27.4514 148.022 28.531 148.813 29.8654C149.622 31.2739 150.032 32.8765 149.998 34.5006C150.035 36.1341 149.625 37.7469 148.813 39.1646C148.022 40.5001 146.865 41.5809 145.478 42.2788C143.922 43.0068 142.225 43.3842 140.507 43.3842C138.789 43.3842 137.092 43.0068 135.536 42.2788C134.156 41.5821 133.008 40.5004 132.23 39.1646C131.427 37.7436 131.023 36.1322 131.06 34.5006C131.026 32.8784 131.431 31.2773 132.23 29.8654C133.012 28.5286 134.165 27.4479 135.55 26.7548C137.106 26.0268 138.803 25.6494 140.521 25.6494C142.239 25.6494 143.936 26.0268 145.493 26.7548H145.478ZM137.812 31.4514C137.099 32.3269 136.734 33.4342 136.786 34.562C136.731 35.7001 137.096 36.8188 137.812 37.7051C138.157 38.079 138.576 38.3773 139.043 38.5814C139.509 38.7855 140.012 38.8908 140.521 38.8908C141.03 38.8908 141.534 38.7855 142 38.5814C142.467 38.3773 142.886 38.079 143.231 37.7051C143.949 36.8196 144.314 35.7003 144.257 34.562C144.309 33.4318 143.938 32.3228 143.217 31.4514C142.882 31.0645 142.464 30.7571 141.996 30.5515C141.527 30.346 141.019 30.2473 140.507 30.2628C139.997 30.2458 139.49 30.3442 139.023 30.5506C138.556 30.757 138.142 31.0662 137.812 31.455V31.4514Z" fill="#141414"/>
<path d="M11.7053 19.8797V38.3915H5.85264C5.0844 38.391 4.3236 38.542 3.61375 38.8357C2.9039 39.1295 2.25891 39.5603 1.71569 40.1035C1.17246 40.6468 0.74164 41.2918 0.447866 42.0016C0.154093 42.7115 0.00312724 43.4723 0.00360219 44.2405V19.8797C0.0415389 18.3532 0.674616 16.9019 1.76773 15.8356C2.86084 14.7693 4.32741 14.1725 5.85445 14.1725C7.38149 14.1725 8.84806 14.7693 9.94117 15.8356C11.0343 16.9019 11.6674 18.3532 11.7053 19.8797Z" fill="#FC665C"/>
<path d="M36.0914 19.8545V29.6342C36.0914 31.1854 35.4752 32.6732 34.3782 33.7701C33.2813 34.867 31.7936 35.4832 30.2423 35.4832C28.6911 35.4832 27.2034 34.867 26.1065 33.7701C25.0095 32.6732 24.3933 31.1854 24.3933 29.6342V25.7035H30.2423C31.7936 25.7035 33.2813 25.0873 34.3782 23.9904C35.4752 22.8934 36.0914 21.4057 36.0914 19.8545Z" fill="#FC665C"/>
<path d="M36.0914 19.8545C36.0914 21.4057 35.4752 22.8934 34.3782 23.9903C33.2813 25.0873 31.7936 25.7035 30.2423 25.7035H24.3933V19.8545C24.3933 18.3029 25.0094 16.8148 26.1062 15.7173C27.203 14.6198 28.6908 14.0028 30.2423 14.0018V14.0018C30.7845 14.0026 31.3241 14.0767 31.8464 14.2222L32.1174 14.3089L32.3883 14.4064L32.6521 14.5184C32.7785 14.5762 32.9049 14.6413 33.0133 14.7099L33.259 14.8472C33.3782 14.9231 33.4974 14.9989 33.6203 15.082C33.6979 15.1345 33.7727 15.1912 33.8443 15.2518C34.5446 15.7972 35.1112 16.4953 35.5006 17.293C35.8901 18.0907 36.0921 18.9668 36.0914 19.8545Z" fill="#E24639"/>
<path d="M30.2423 14.0018C28.6908 14.0028 27.203 14.6198 26.1062 15.7173C25.0094 16.8148 24.3933 18.3029 24.3933 19.8545V25.7035H20.4663C19.6857 25.7229 18.9091 25.5859 18.1823 25.3006C17.4555 25.0153 16.7931 24.5874 16.2341 24.0422C15.6752 23.497 15.231 22.8454 14.9277 22.1259C14.6244 21.4064 14.4682 20.6335 14.4682 19.8527C14.4682 19.0718 14.6244 18.2989 14.9277 17.5794C15.231 16.8599 15.6752 16.2083 16.2341 15.6631C16.7931 15.1179 17.4555 14.69 18.1823 14.4047C18.9091 14.1194 19.6857 13.9824 20.4663 14.0018H30.2423Z" fill="#FF9180"/>
<path d="M11.7053 38.3915V44.2405C11.706 45.3982 11.3634 46.5301 10.7207 47.4931C10.078 48.456 9.16424 49.2067 8.09487 49.6502C7.0255 50.0938 5.84861 50.2102 4.71307 49.9848C3.57753 49.7593 2.53435 49.2022 1.71548 48.3839C0.896613 47.5655 0.338843 46.5227 0.112724 45.3873C-0.113395 44.2519 0.00229635 43.0749 0.445163 42.0053C0.88803 40.9356 1.63818 40.0213 2.60072 39.3781C3.56326 38.7348 4.69495 38.3915 5.85265 38.3915H11.7053Z" fill="#E24639"/>
<path d="M36.0914 44.2405C36.0918 45.0089 35.9409 45.7699 35.6472 46.48C35.3534 47.19 34.9227 47.8352 34.3795 48.3787C33.8363 48.9223 33.1914 49.3534 32.4815 49.6476C31.7716 49.9418 31.0107 50.0932 30.2423 50.0932H5.85266C7.40429 50.0913 8.89183 49.474 9.989 48.3769C11.0862 47.2797 11.7034 45.7921 11.7053 44.2405V38.3915H30.2423C31.7936 38.3915 33.2813 39.0077 34.3782 40.1046C35.4751 41.2015 36.0914 42.6893 36.0914 44.2405Z" fill="#FF9180"/>
</svg>
